<svg width="1600" height="900" viewBox="0 0 1600 900" fill="none" xmlns="http://www.w3.org/2000/svg">
  <rect width="1600" height="900" fill="#0B1220"/>
  <rect x="64" y="92" width="1080" height="620" rx="24" fill="#101928" stroke="#E4E9ED" stroke-opacity="0.18"/>
  <rect x="1180" y="140" width="296" height="148" rx="22" fill="#111D2E" stroke="#E4E9ED" stroke-opacity="0.12"/>
  <rect x="1180" y="314" width="296" height="148" rx="22" fill="#18212F" stroke="#E4E9ED" stroke-opacity="0.12"/>
  <rect x="1180" y="488" width="296" height="148" rx="22" fill="#121B29" stroke="#E4E9ED" stroke-opacity="0.12"/>
  <circle cx="1248" cy="214" r="24" fill="#D7A24C" fill-opacity="0.16"/>
  <circle cx="1360" cy="388" r="18" fill="#6AA7B8" fill-opacity="0.18"/>
  <circle cx="1308" cy="566" r="32" fill="#7EA58A" fill-opacity="0.12"/>
  <rect x="110" y="144" width="396" height="24" rx="12" fill="#E4E9ED" fill-opacity="0.9"/>
  <rect x="110" y="186" width="614" height="58" rx="16" fill="#E4E9ED" fill-opacity="0.94"/>
  <rect x="110" y="276" width="440" height="16" rx="8" fill="#E4E9ED" fill-opacity="0.34"/>
  <rect x="110" y="308" width="504" height="16" rx="8" fill="#E4E9ED" fill-opacity="0.24"/>
  <rect x="110" y="374" width="428" height="280" rx="20" fill="#0D1523" stroke="#E4E9ED" stroke-opacity="0.1"/>
  <rect x="566" y="374" width="532" height="280" rx="20" fill="#0C1320" stroke="#E4E9ED" stroke-opacity="0.1"/>
  <g opacity="0.92">
    <rect x="594" y="412" width="236" height="20" rx="10" fill="#50C4D6" fill-opacity="0.25"/>
    <rect x="594" y="448" width="314" height="14" rx="7" fill="#E4E9ED" fill-opacity="0.12"/>
    <rect x="594" y="478" width="344" height="14" rx="7" fill="#E4E9ED" fill-opacity="0.12"/>
    <rect x="594" y="508" width="284" height="14" rx="7" fill="#E4E9ED" fill-opacity="0.12"/>
    <rect x="594" y="562" width="108" height="54" rx="16" fill="#182538"/>
    <rect x="720" y="562" width="108" height="54" rx="16" fill="#1B2A3E"/>
    <rect x="846" y="562" width="108" height="54" rx="16" fill="#162334"/>
  </g>
  <g opacity="0.74">
    <path d="M158 424H364" stroke="#7EA58A" stroke-width="6" stroke-linecap="round"/>
    <path d="M158 456H322" stroke="#D7A24C" stroke-width="6" stroke-linecap="round"/>
    <path d="M158 488H396" stroke="#6AA7B8" stroke-width="6" stroke-linecap="round"/>
    <path d="M158 520H292" stroke="#A97FE3" stroke-width="6" stroke-linecap="round"/>
    <path d="M158 552H342" stroke="#E4E9ED" stroke-opacity="0.3" stroke-width="6" stroke-linecap="round"/>
    <path d="M158 584H276" stroke="#E4E9ED" stroke-opacity="0.22" stroke-width="6" stroke-linecap="round"/>
  </g>
  <path d="M1010 172L1056 114L1118 138L1080 202L1010 172Z" fill="#6AA7B8" fill-opacity="0.14"/>
  <path d="M972 606L1028 664L982 724L918 686L972 606Z" fill="#D7A24C" fill-opacity="0.12"/>
  <path d="M116 706H1484" stroke="#E4E9ED" stroke-opacity="0.08" stroke-width="2"/>
</svg>
